<svg xmlns="http://www.w3.org/2000/svg" viewBox="0 0 512 512">
    <defs>
        <style>.cls-1{fill:#FFFFFF}</style>
    </defs>
    <g id="_49" data-name="49">
        <path class="cls-1" d="M189.06 459.75h-17.92a6.85 6.85 0 0 1-6.84-6.84v-5.66a2.5 2.5 0 0 1 2.5-2.5h26.6a2.5 2.5 0 0 1 2.5 2.5v5.66a6.85 6.85 0 0 1-6.84 6.84zm-19.76-10v3.16a1.84 1.84 0 0 0 1.84 1.84h17.92a1.85 1.85 0 0 0 1.84-1.84v-3.16zM340.86 459.75h-17.92a6.85 6.85 0 0 1-6.84-6.84v-5.66a2.5 2.5 0 0 1 2.5-2.5h26.6a2.5 2.5 0 0 1 2.5 2.5v5.66a6.85 6.85 0 0 1-6.84 6.84zm-19.76-10v3.16a1.85 1.85 0 0 0 1.84 1.84h17.92a1.84 1.84 0 0 0 1.84-1.84v-3.16z"/>
        <path class="cls-1" d="M347.93 449.75H164.07A19.79 19.79 0 0 1 144.3 430V178.83a2.5 2.5 0 1 1 5 0V430a14.79 14.79 0 0 0 14.77 14.77h183.86A14.79 14.79 0 0 0 362.7 430v-31.11a2.5 2.5 0 0 1 5 0V430a19.79 19.79 0 0 1-19.77 19.75zM365.2 359.57a2.5 2.5 0 0 1-2.5-2.5V75.59a14.78 14.78 0 0 0-14.77-14.76H164.07a14.78 14.78 0 0 0-14.77 14.76v51.57a2.5 2.5 0 1 1-5 0V75.59a19.79 19.79 0 0 1 19.77-19.76h183.86a19.79 19.79 0 0 1 19.77 19.76v281.48a2.5 2.5 0 0 1-2.5 2.5z"/>
        <path class="cls-1" d="M342.19 312.76h-6.51a9.26 9.26 0 0 1-9.24-9.24v-62.69a2.5 2.5 0 1 1 5 0v62.69a4.24 4.24 0 0 0 4.24 4.24h6.51a4.25 4.25 0 0 0 4.25-4.24V191.31a4.25 4.25 0 0 0-4.25-4.25h-6.51a4.24 4.24 0 0 0-4.24 4.25v19.17a2.5 2.5 0 0 1-5 0v-19.17a9.26 9.26 0 0 1 9.24-9.25h6.51a9.26 9.26 0 0 1 9.25 9.25v112.21a9.26 9.26 0 0 1-9.25 9.24zM311.16 429.75H174.58a10.29 10.29 0 0 1-10.28-10.28V86.11a10.29 10.29 0 0 1 10.28-10.28h16a2.5 2.5 0 0 1 0 5h-16a5.29 5.29 0 0 0-5.28 5.28v333.36a5.29 5.29 0 0 0 5.28 5.28h136.58a5.29 5.29 0 0 0 5.28-5.28V86.11a5.29 5.29 0 0 0-5.28-5.28h-86a2.5 2.5 0 0 1 0-5h86a10.29 10.29 0 0 1 10.28 10.28v333.36a10.29 10.29 0 0 1-10.28 10.28z"/>
        <path class="cls-1" d="M318.94 409.75H166.8a2.5 2.5 0 1 1 0-5h152.14a2.5 2.5 0 1 1 0 5zM318.94 389.75H166.8a2.5 2.5 0 1 1 0-5h152.14a2.5 2.5 0 1 1 0 5zM318.94 309.75H166.8a2.5 2.5 0 0 1 0-5h152.14a2.5 2.5 0 1 1 0 5zM318.94 249.75H166.8a2.5 2.5 0 0 1 0-5h152.14a2.5 2.5 0 1 1 0 5zM318.94 229.75H166.8a2.5 2.5 0 0 1 0-5h152.14a2.5 2.5 0 1 1 0 5zM318.94 169.75H166.8a2.5 2.5 0 0 1 0-5h152.14a2.5 2.5 0 0 1 0 5zM318.94 149.75H166.8a2.5 2.5 0 0 1 0-5h152.14a2.5 2.5 0 0 1 0 5z"/>
        <path class="cls-1" d="M186.52 389.75a8.48 8.48 0 0 1-8.48-8.48V363a8.48 8.48 0 0 1 8.48-8.47h14a2.5 2.5 0 1 1 0 5h-14A3.48 3.48 0 0 0 183 363v18.23a3.48 3.48 0 0 0 3.48 3.48 2.5 2.5 0 0 1 0 5zM299.22 389.75a2.5 2.5 0 0 1 0-5 3.47 3.47 0 0 0 3.47-3.48V363a3.47 3.47 0 0 0-3.47-3.47h-72.14a2.5 2.5 0 1 1 0-5h72.14a8.48 8.48 0 0 1 8.47 8.47v18.23a8.48 8.48 0 0 1-8.47 8.52z"/>
        <path class="cls-1" d="M271.06 379.79h-1.74a6.64 6.64 0 0 1-6.63-6.63v-5.36a6.64 6.64 0 0 1 6.63-6.63h1.74a6.63 6.63 0 0 1 6.63 6.63v5.36a6.64 6.64 0 0 1-6.63 6.63zm-1.74-13.62a1.63 1.63 0 0 0-1.63 1.63v5.36a1.63 1.63 0 0 0 1.63 1.63h1.74a1.63 1.63 0 0 0 1.63-1.63v-5.36a1.63 1.63 0 0 0-1.63-1.63zM251.06 379.79h-1.74a6.64 6.64 0 0 1-6.63-6.63v-5.36a6.64 6.64 0 0 1 6.63-6.63h1.74a6.63 6.63 0 0 1 6.63 6.63v5.36a6.64 6.64 0 0 1-6.63 6.63zm-1.74-13.62a1.63 1.63 0 0 0-1.63 1.63v5.36a1.63 1.63 0 0 0 1.63 1.63h1.74a1.63 1.63 0 0 0 1.63-1.63v-5.36a1.63 1.63 0 0 0-1.63-1.63zM231.06 379.79h-1.74a6.64 6.64 0 0 1-6.63-6.63v-5.36a6.64 6.64 0 0 1 6.63-6.63h1.74a6.63 6.63 0 0 1 6.63 6.63v5.36a6.64 6.64 0 0 1-6.63 6.63zm-1.74-13.62a1.63 1.63 0 0 0-1.63 1.63v5.36a1.63 1.63 0 0 0 1.63 1.63h1.74a1.63 1.63 0 0 0 1.63-1.63v-5.36a1.63 1.63 0 0 0-1.63-1.63zM291.06 379.79h-1.74a6.64 6.64 0 0 1-6.63-6.63v-5.36a6.64 6.64 0 0 1 6.63-6.63h1.74a6.63 6.63 0 0 1 6.63 6.63v5.36a6.64 6.64 0 0 1-6.63 6.63zm-1.74-13.62a1.63 1.63 0 0 0-1.63 1.63v5.36a1.63 1.63 0 0 0 1.63 1.63h1.74a1.63 1.63 0 0 0 1.63-1.63v-5.36a1.63 1.63 0 0 0-1.63-1.63zM195.54 379.66a7.5 7.5 0 1 1 7.5-7.5 7.52 7.52 0 0 1-7.5 7.5zm0-10a2.5 2.5 0 1 0 2.5 2.5 2.51 2.51 0 0 0-2.5-2.5zM186.52 309.75a8.48 8.48 0 0 1-8.48-8.48V283a8.48 8.48 0 0 1 8.48-8.47h63.67a2.5 2.5 0 0 1 0 5h-63.67A3.48 3.48 0 0 0 183 283v18.23a3.48 3.48 0 0 0 3.48 3.48 2.5 2.5 0 0 1 0 5zM299.22 309.75a2.5 2.5 0 0 1 0-5 3.47 3.47 0 0 0 3.47-3.48V283a3.47 3.47 0 0 0-3.47-3.47h-18.38a2.5 2.5 0 0 1 0-5h18.38a8.48 8.48 0 0 1 8.47 8.47v18.23a8.48 8.48 0 0 1-8.47 8.52zM271.06 299.79h-1.74a6.64 6.64 0 0 1-6.63-6.63v-5.36a6.64 6.64 0 0 1 6.63-6.63h1.74a6.63 6.63 0 0 1 6.63 6.63v5.36a6.64 6.64 0 0 1-6.63 6.63zm-1.74-13.62a1.63 1.63 0 0 0-1.63 1.63v5.36a1.63 1.63 0 0 0 1.63 1.63h1.74a1.63 1.63 0 0 0 1.63-1.63v-5.36a1.63 1.63 0 0 0-1.63-1.63z"/>
        <path class="cls-1" d="M251.06 299.79h-1.74a6.64 6.64 0 0 1-6.63-6.63v-5.36a6.64 6.64 0 0 1 6.63-6.63h1.74a6.63 6.63 0 0 1 6.63 6.63v5.36a6.64 6.64 0 0 1-6.63 6.63zm-1.74-13.62a1.63 1.63 0 0 0-1.63 1.63v5.36a1.63 1.63 0 0 0 1.63 1.63h1.74a1.63 1.63 0 0 0 1.63-1.63v-5.36a1.63 1.63 0 0 0-1.63-1.63zM231.06 299.79h-1.74a6.64 6.64 0 0 1-6.63-6.63v-5.36a6.64 6.64 0 0 1 6.63-6.63h1.74a6.63 6.63 0 0 1 6.63 6.63v5.36a6.64 6.64 0 0 1-6.63 6.63zm-1.74-13.62a1.63 1.63 0 0 0-1.63 1.63v5.36a1.63 1.63 0 0 0 1.63 1.63h1.74a1.63 1.63 0 0 0 1.63-1.63v-5.36a1.63 1.63 0 0 0-1.63-1.63zM291.06 299.79h-1.74a6.64 6.64 0 0 1-6.63-6.63v-5.36a6.64 6.64 0 0 1 6.63-6.63h1.74a6.63 6.63 0 0 1 6.63 6.63v5.36a6.64 6.64 0 0 1-6.63 6.63zm-1.74-13.62a1.63 1.63 0 0 0-1.63 1.63v5.36a1.63 1.63 0 0 0 1.63 1.63h1.74a1.63 1.63 0 0 0 1.63-1.63v-5.36a1.63 1.63 0 0 0-1.63-1.63zM195.54 299.66a7.5 7.5 0 1 1 7.5-7.5 7.52 7.52 0 0 1-7.5 7.5zm0-10a2.5 2.5 0 1 0 2.5 2.5 2.51 2.51 0 0 0-2.5-2.5zM299.22 229.75a2.5 2.5 0 0 1 0-5 3.47 3.47 0 0 0 3.47-3.48V203a3.47 3.47 0 0 0-3.47-3.47h-112.7A3.48 3.48 0 0 0 183 203v18.23a3.48 3.48 0 0 0 3.48 3.48 2.5 2.5 0 0 1 0 5 8.48 8.48 0 0 1-8.48-8.48V203a8.48 8.48 0 0 1 8.48-8.47h112.7a8.48 8.48 0 0 1 8.47 8.47v18.23a8.48 8.48 0 0 1-8.43 8.52z"/>
        <path class="cls-1" d="M271.06 219.79h-1.74a6.64 6.64 0 0 1-6.63-6.63v-5.36a6.64 6.64 0 0 1 6.63-6.63h1.74a6.63 6.63 0 0 1 6.63 6.63v5.36a6.64 6.64 0 0 1-6.63 6.63zm-1.74-13.62a1.63 1.63 0 0 0-1.63 1.63v5.36a1.63 1.63 0 0 0 1.63 1.63h1.74a1.63 1.63 0 0 0 1.63-1.63v-5.36a1.63 1.63 0 0 0-1.63-1.63zM251.06 219.79h-1.74a6.64 6.64 0 0 1-6.63-6.63v-5.36a6.64 6.64 0 0 1 6.63-6.63h1.74a6.63 6.63 0 0 1 6.63 6.63v5.36a6.64 6.64 0 0 1-6.63 6.63zm-1.74-13.62a1.63 1.63 0 0 0-1.63 1.63v5.36a1.63 1.63 0 0 0 1.63 1.63h1.74a1.63 1.63 0 0 0 1.63-1.63v-5.36a1.63 1.63 0 0 0-1.63-1.63zM231.06 219.79h-1.74a6.64 6.64 0 0 1-6.63-6.63v-5.36a6.64 6.64 0 0 1 6.63-6.63h1.74a6.63 6.63 0 0 1 6.63 6.63v5.36a6.64 6.64 0 0 1-6.63 6.63zm-1.74-13.62a1.63 1.63 0 0 0-1.63 1.63v5.36a1.63 1.63 0 0 0 1.63 1.63h1.74a1.63 1.63 0 0 0 1.63-1.63v-5.36a1.63 1.63 0 0 0-1.63-1.63zM291.06 219.79h-1.74a6.64 6.64 0 0 1-6.63-6.63v-5.36a6.64 6.64 0 0 1 6.63-6.63h1.74a6.63 6.63 0 0 1 6.63 6.63v5.36a6.64 6.64 0 0 1-6.63 6.63zm-1.74-13.62a1.63 1.63 0 0 0-1.63 1.63v5.36a1.63 1.63 0 0 0 1.63 1.63h1.74a1.63 1.63 0 0 0 1.63-1.63v-5.36a1.63 1.63 0 0 0-1.63-1.63zM195.54 219.66a7.5 7.5 0 1 1 7.5-7.5 7.52 7.52 0 0 1-7.5 7.5zm0-10a2.5 2.5 0 1 0 2.5 2.5 2.51 2.51 0 0 0-2.5-2.5zM299.22 149.75a2.5 2.5 0 0 1 0-5 3.47 3.47 0 0 0 3.47-3.48V123a3.47 3.47 0 0 0-3.47-3.47h-112.7A3.48 3.48 0 0 0 183 123v18.23a3.48 3.48 0 0 0 3.48 3.48 2.5 2.5 0 0 1 0 5 8.48 8.48 0 0 1-8.48-8.48V123a8.48 8.48 0 0 1 8.48-8.47h112.7a8.48 8.48 0 0 1 8.47 8.47v18.23a8.48 8.48 0 0 1-8.43 8.52z"/>
        <path class="cls-1" d="M271.06 139.79h-1.74a6.64 6.64 0 0 1-6.63-6.63v-5.36a6.64 6.64 0 0 1 6.63-6.63h1.74a6.63 6.63 0 0 1 6.63 6.63v5.36a6.64 6.64 0 0 1-6.63 6.63zm-1.74-13.62a1.63 1.63 0 0 0-1.63 1.63v5.36a1.63 1.63 0 0 0 1.63 1.63h1.74a1.63 1.63 0 0 0 1.63-1.63v-5.36a1.63 1.63 0 0 0-1.63-1.63zM251.06 139.79h-1.74a6.64 6.64 0 0 1-6.63-6.63v-5.36a6.64 6.64 0 0 1 6.63-6.63h1.74a6.63 6.63 0 0 1 6.63 6.63v5.36a6.64 6.64 0 0 1-6.63 6.63zm-1.74-13.62a1.63 1.63 0 0 0-1.63 1.63v5.36a1.63 1.63 0 0 0 1.63 1.63h1.74a1.63 1.63 0 0 0 1.63-1.63v-5.36a1.63 1.63 0 0 0-1.63-1.63zM231.06 139.79h-1.74a6.64 6.64 0 0 1-6.63-6.63v-5.36a6.64 6.64 0 0 1 6.63-6.63h1.74a6.63 6.63 0 0 1 6.63 6.63v5.36a6.64 6.64 0 0 1-6.63 6.63zm-1.74-13.62a1.63 1.63 0 0 0-1.63 1.63v5.36a1.63 1.63 0 0 0 1.63 1.63h1.74a1.63 1.63 0 0 0 1.63-1.63v-5.36a1.63 1.63 0 0 0-1.63-1.63zM291.06 139.79h-1.74a6.64 6.64 0 0 1-6.63-6.63v-5.36a6.64 6.64 0 0 1 6.63-6.63h1.74a6.63 6.63 0 0 1 6.63 6.63v5.36a6.64 6.64 0 0 1-6.63 6.63zm-1.74-13.62a1.63 1.63 0 0 0-1.63 1.63v5.36a1.63 1.63 0 0 0 1.63 1.63h1.74a1.63 1.63 0 0 0 1.63-1.63v-5.36a1.63 1.63 0 0 0-1.63-1.63zM195.54 139.66a7.5 7.5 0 1 1 7.5-7.5 7.52 7.52 0 0 1-7.5 7.5zm0-10a2.5 2.5 0 1 0 2.5 2.5 2.51 2.51 0 0 0-2.5-2.5z"/>
    </g>
</svg>