<svg id="_01" data-name="1"
    xmlns="http://www.w3.org/2000/svg" viewBox="0 0 512 512">
    <defs>
        <style>.cls-1{fill:#FFFFFF}</style>
    </defs>
    <path class="cls-1" d="M401.09 425.91H110.9c-3.46 0-6.16-3.53-6.16-8s2.64-8.05 6-8.22l48-2.52a2.5 2.5 0 1 1 .26 5l-48 2.52c-.26 0-1.29 1.09-1.29 3.23 0 1.89.86 3 1.16 3h290.22c.3 0 1.16-1.15 1.16-3 0-2.14-1-3.22-1.29-3.23l-109.87-5.77a2.5 2.5 0 0 1-2.37-2.5v-48.89a2.5 2.5 0 0 1 5 0V404l107.5 5.65c3.39.17 6 3.79 6 8.22s-2.67 8.04-6.13 8.04z"/>
    <path class="cls-1" d="M194.5 410.25a2.5 2.5 0 0 1-.13-5l23.9-1.26v-46.46a2.5 2.5 0 0 1 5 0v48.84a2.5 2.5 0 0 1-2.37 2.5l-26.27 1.38z"/>
    <path class="cls-1" d="M428.81 360H83.19a10.26 10.26 0 0 1-10.25-10.25V125.83a10.26 10.26 0 0 1 10.25-10.24h35.94a2.5 2.5 0 0 1 0 5H83.19a5.25 5.25 0 0 0-5.25 5.24v224a5.25 5.25 0 0 0 5.25 5.17h345.62a5.25 5.25 0 0 0 5.25-5.25V125.83a5.25 5.25 0 0 0-5.25-5.24H174.07a2.5 2.5 0 0 1 0-5h254.74a10.26 10.26 0 0 1 10.25 10.24v224A10.26 10.26 0 0 1 428.81 360z"/>
    <path class="cls-1" d="M414.73 332.77h-33.79a2.5 รถ2.5 0 0 1 0-5h31.29V137.85H99.76v189.92h232.41a2.5 2.5 0 1 1 0 5H97.26a2.5 2.5 0 0 1-2.5-2.5V135.35a2.5 2.5 0 0 1 2.5-2.5h317.47a2.5 2.5 0 0 1 2.5 2.5v194.92a2.5 2.5 0 0 1-2.5 2.5z"/>
</svg>
